solid OpenSCAD_Model
  facet normal -1 0 0
    outer loop
      vertex -11 -5 0
      vertex -11 -5 38
      vertex -11 -3.79087 0
    endloop
  endfacet
  facet normal -1 0 0
    outer loop
      vertex -11 -3.79087 10
      vertex -11 -5 38
      vertex -11 -1.50729 38
    endloop
  endfacet
  facet normal -1 0 0
    outer loop
      vertex -11 -3.79087 0
      vertex -11 -5 38
      vertex -11 -3.79087 10
    endloop
  endfacet
  facet normal -1 0 0
    outer loop
      vertex -11 -3.79087 10
      vertex -11 -1.50729 38
      vertex -11 -1.50729 10
    endloop
  endfacet
  facet normal 0 -1 0
    outer loop
      vertex -11 -5 38
      vertex -11 -5 0
      vertex -1 -5 0
    endloop
  endfacet
  facet normal 0 -1 0
    outer loop
      vertex -1 -5 38
      vertex -11 -5 38
      vertex -1 -5 0
    endloop
  endfacet
  facet normal 0 0 -1
    outer loop
      vertex -11 -5 0
      vertex -9.51785 -3.97083 0
      vertex -1 -5 0
    endloop
  endfacet
  facet normal 0 0 -1
    outer loop
      vertex -11 -5 0
      vertex -11 -3.79087 0
      vertex -9.51785 -3.97083 0
    endloop
  endfacet
  facet normal 0 0 -1
    outer loop
      vertex -1 -5 0
      vertex -7.72774 -3.29194 0
      vertex -6.45818 -1.85889 0
    endloop
  endfacet
  facet normal 0 0 -1
    outer loop
      vertex -6.45818 -1.85889 0
      vertex -6 0 0
      vertex -1 -5 0
    endloop
  endfacet
  facet normal 0 0 -1
    outer loop
      vertex -6 0 0
      vertex -6.45818 1.85889 0
      vertex -1 -5 0
    endloop
  endfacet
  facet normal 0 0 -1
    outer loop
      vertex -6.45818 1.85889 0
      vertex -1 5 0
      vertex -1 -5 0
    endloop
  endfacet
  facet normal 0 0 -1
    outer loop
      vertex -9.51785 3.97083 0
      vertex -11 3.79087 0
      vertex -11 5 0
    endloop
  endfacet
  facet normal 0 0 -1
    outer loop
      vertex -9.51785 3.97083 0
      vertex -11 5 0
      vertex -7.72774 3.29194 0
    endloop
  endfacet
  facet normal 0 0 -1
    outer loop
      vertex -7.72774 3.29194 0
      vertex -11 5 0
      vertex -1 5 0
    endloop
  endfacet
  facet normal 0 0 -1
    outer loop
      vertex -7.72774 3.29194 0
      vertex -1 5 0
      vertex -6.45818 1.85889 0
    endloop
  endfacet
  facet normal 0 0 -1
    outer loop
      vertex -7.72774 -3.29194 0
      vertex -1 -5 0
      vertex -9.51785 -3.97083 0
    endloop
  endfacet
  facet normal 0.120536 0.992709 0
    outer loop
      vertex -9.51785 -3.97083 10
      vertex -9.51785 -3.97083 0
      vertex -11 -3.79087 10
    endloop
  endfacet
  facet normal 0.120536 0.992709 0
    outer loop
      vertex -11 -3.79087 10
      vertex -9.51785 -3.97083 0
      vertex -11 -3.79087 0
    endloop
  endfacet
  facet normal 0 0 -1
    outer loop
      vertex -6 0 10
      vertex -8.75302 -1.56366 10
      vertex -6.45818 1.85889 10
    endloop
  endfacet
  facet normal 0 0 -1
    outer loop
      vertex -7.72774 3.29194 10
      vertex -8 0 10
      vertex -9.51785 3.97083 10
    endloop
  endfacet
  facet normal 0 0 -1
    outer loop
      vertex -9.51785 3.97083 10
      vertex -8.75302 1.56366 10
      vertex -11 3.79087 10
    endloop
  endfacet
  facet normal 0 0 -1
    outer loop
      vertex -11 3.79087 10
      vertex -10.445 1.94986 10
      vertex -11 1.50729 10
    endloop
  endfacet
  facet normal 0 0 -1
    outer loop
      vertex -8.75302 1.56366 10
      vertex -10.445 1.94986 10
      vertex -11 3.79087 10
    endloop
  endfacet
  facet normal 0 0 -1
    outer loop
      vertex -8 0 10
      vertex -8.75302 1.56366 10
      vertex -9.51785 3.97083 10
    endloop
  endfacet
  facet normal 0 0 -1
    outer loop
      vertex -6.45818 1.85889 10
      vertex -8 0 10
      vertex -7.72774 3.29194 10
    endloop
  endfacet
  facet normal 0 0 -1
    outer loop
      vertex -8.75302 -1.56366 10
      vertex -8 0 10
      vertex -6.45818 1.85889 10
    endloop
  endfacet
  facet normal 0 0 -1
    outer loop
      vertex -6.45818 -1.85889 10
      vertex -8.75302 -1.56366 10
      vertex -6 0 10
    endloop
  endfacet
  facet normal 0 0 -1
    outer loop
      vertex -10.445 -1.94986 10
      vertex -8.75302 -1.56366 10
      vertex -6.45818 -1.85889 10
    endloop
  endfacet
  facet normal 0 0 -1
    outer loop
      vertex -10.445 -1.94986 10
      vertex -6.45818 -1.85889 10
      vertex -7.72774 -3.29194 10
    endloop
  endfacet
  facet normal 0 0 -1
    outer loop
      vertex -10.445 -1.94986 10
      vertex -7.72774 -3.29194 10
      vertex -9.51785 -3.97083 10
    endloop
  endfacet
  facet normal 0 0 -1
    outer loop
      vertex -10.445 -1.94986 10
      vertex -9.51785 -3.97083 10
      vertex -11 -1.50729 10
    endloop
  endfacet
  facet normal 0 0 -1
    outer loop
      vertex -9.51785 -3.97083 10
      vertex -11 -3.79087 10
      vertex -11 -1.50729 10
    endloop
  endfacet
  facet normal 0.62349 0.781831 0
    outer loop
      vertex -10.445 -1.94986 38
      vertex -10.445 -1.94986 10
      vertex -11 -1.50729 38
    endloop
  endfacet
  facet normal 0.62349 0.781831 0
    outer loop
      vertex -11 -1.50729 38
      vertex -10.445 -1.94986 10
      vertex -11 -1.50729 10
    endloop
  endfacet
  facet normal 0 0 1
    outer loop
      vertex -10.445 -1.94986 38
      vertex -11 -5 38
      vertex -1 -5 38
    endloop
  endfacet
  facet normal 0 0 1
    outer loop
      vertex -8.75302 -1.56366 38
      vertex -10.445 -1.94986 38
      vertex -1 -5 38
    endloop
  endfacet
  facet normal 0 0 1
    outer loop
      vertex -8.75302 1.56366 38
      vertex -8 0 38
      vertex -1 5 38
    endloop
  endfacet
  facet normal 0 0 1
    outer loop
      vertex -11 5 38
      vertex -10.445 1.94986 38
      vertex -1 5 38
    endloop
  endfacet
  facet normal 0 0 1
    outer loop
      vertex -11 5 38
      vertex -11 1.50729 38
      vertex -10.445 1.94986 38
    endloop
  endfacet
  facet normal 0 0 1
    outer loop
      vertex -1 5 38
      vertex -8 0 38
      vertex -1 -5 38
    endloop
  endfacet
  facet normal 0 0 1
    outer loop
      vertex -8 0 38
      vertex -8.75302 -1.56366 38
      vertex -1 -5 38
    endloop
  endfacet
  facet normal 0 0 1
    outer loop
      vertex -11 -1.50729 38
      vertex -11 -5 38
      vertex -10.445 -1.94986 38
    endloop
  endfacet
  facet normal 0 0 1
    outer loop
      vertex -10.445 1.94986 38
      vertex -8.75302 1.56366 38
      vertex -1 5 38
    endloop
  endfacet
  facet normal 1 0 0
    outer loop
      vertex -1 -5 38
      vertex -1 -5 0
      vertex -1 5 0
    endloop
  endfacet
  facet normal 1 0 0
    outer loop
      vertex -1 5 38
      vertex -1 -5 38
      vertex -1 5 0
    endloop
  endfacet
  facet normal 0 1 0
    outer loop
      vertex -11 5 0
      vertex -11 5 38
      vertex -1 5 0
    endloop
  endfacet
  facet normal 0 1 0
    outer loop
      vertex -1 5 0
      vertex -11 5 38
      vertex -1 5 38
    endloop
  endfacet
  facet normal -1 0 0
    outer loop
      vertex -11 1.50729 10
      vertex -11 1.50729 38
      vertex -11 3.79087 10
    endloop
  endfacet
  facet normal -1 0 0
    outer loop
      vertex -11 3.79087 10
      vertex -11 1.50729 38
      vertex -11 5 38
    endloop
  endfacet
  facet normal -1 0 0
    outer loop
      vertex -11 3.79087 10
      vertex -11 5 38
      vertex -11 5 0
    endloop
  endfacet
  facet normal -1 0 0
    outer loop
      vertex -11 3.79087 10
      vertex -11 5 0
      vertex -11 3.79087 0
    endloop
  endfacet
  facet normal 0.120536 -0.992709 0
    outer loop
      vertex -9.51785 3.97083 0
      vertex -9.51785 3.97083 10
      vertex -11 3.79087 10
    endloop
  endfacet
  facet normal 0.120536 -0.992709 0
    outer loop
      vertex -11 3.79087 0
      vertex -9.51785 3.97083 0
      vertex -11 3.79087 10
    endloop
  endfacet
  facet normal -0.354605 -0.935016 0
    outer loop
      vertex -7.72774 3.29194 0
      vertex -7.72774 3.29194 10
      vertex -9.51785 3.97083 10
    endloop
  endfacet
  facet normal -0.354605 -0.935016 0
    outer loop
      vertex -9.51785 3.97083 0
      vertex -7.72774 3.29194 0
      vertex -9.51785 3.97083 10
    endloop
  endfacet
  facet normal -0.748511 -0.663123 0
    outer loop
      vertex -6.45818 1.85889 10
      vertex -7.72774 3.29194 10
      vertex -6.45818 1.85889 0
    endloop
  endfacet
  facet normal -0.748511 -0.663123 0
    outer loop
      vertex -6.45818 1.85889 0
      vertex -7.72774 3.29194 10
      vertex -7.72774 3.29194 0
    endloop
  endfacet
  facet normal -0.970942 -0.239316 0
    outer loop
      vertex -6 0 10
      vertex -6.45818 1.85889 10
      vertex -6 0 0
    endloop
  endfacet
  facet normal -0.970942 -0.239316 0
    outer loop
      vertex -6 0 0
      vertex -6.45818 1.85889 10
      vertex -6.45818 1.85889 0
    endloop
  endfacet
  facet normal -0.970942 0.239316 0
    outer loop
      vertex -6 0 10
      vertex -6 0 0
      vertex -6.45818 -1.85889 10
    endloop
  endfacet
  facet normal -0.970942 0.239316 0
    outer loop
      vertex -6.45818 -1.85889 10
      vertex -6 0 0
      vertex -6.45818 -1.85889 0
    endloop
  endfacet
  facet normal -0.748511 0.663123 0
    outer loop
      vertex -6.45818 -1.85889 10
      vertex -6.45818 -1.85889 0
      vertex -7.72774 -3.29194 10
    endloop
  endfacet
  facet normal -0.748511 0.663123 0
    outer loop
      vertex -7.72774 -3.29194 10
      vertex -6.45818 -1.85889 0
      vertex -7.72774 -3.29194 0
    endloop
  endfacet
  facet normal -0.354605 0.935016 0
    outer loop
      vertex -7.72774 -3.29194 10
      vertex -7.72774 -3.29194 0
      vertex -9.51785 -3.97083 10
    endloop
  endfacet
  facet normal -0.354605 0.935016 0
    outer loop
      vertex -9.51785 -3.97083 10
      vertex -7.72774 -3.29194 0
      vertex -9.51785 -3.97083 0
    endloop
  endfacet
  facet normal 0.62349 -0.781831 0
    outer loop
      vertex -10.445 1.94986 10
      vertex -10.445 1.94986 38
      vertex -11 1.50729 38
    endloop
  endfacet
  facet normal 0.62349 -0.781831 0
    outer loop
      vertex -11 1.50729 10
      vertex -10.445 1.94986 10
      vertex -11 1.50729 38
    endloop
  endfacet
  facet normal -0.222521 -0.974928 0
    outer loop
      vertex -8.75302 1.56366 10
      vertex -8.75302 1.56366 38
      vertex -10.445 1.94986 38
    endloop
  endfacet
  facet normal -0.222521 -0.974928 0
    outer loop
      vertex -10.445 1.94986 10
      vertex -8.75302 1.56366 10
      vertex -10.445 1.94986 38
    endloop
  endfacet
  facet normal -0.900969 -0.433884 0
    outer loop
      vertex -8 0 38
      vertex -8.75302 1.56366 38
      vertex -8 0 10
    endloop
  endfacet
  facet normal -0.900969 -0.433884 0
    outer loop
      vertex -8 0 10
      vertex -8.75302 1.56366 38
      vertex -8.75302 1.56366 10
    endloop
  endfacet
  facet normal -0.900969 0.433884 0
    outer loop
      vertex -8 0 38
      vertex -8 0 10
      vertex -8.75302 -1.56366 38
    endloop
  endfacet
  facet normal -0.900969 0.433884 0
    outer loop
      vertex -8.75302 -1.56366 38
      vertex -8 0 10
      vertex -8.75302 -1.56366 10
    endloop
  endfacet
  facet normal -0.222521 0.974928 0
    outer loop
      vertex -8.75302 -1.56366 38
      vertex -8.75302 -1.56366 10
      vertex -10.445 -1.94986 38
    endloop
  endfacet
  facet normal -0.222521 0.974928 0
    outer loop
      vertex -10.445 -1.94986 38
      vertex -8.75302 -1.56366 10
      vertex -10.445 -1.94986 10
    endloop
  endfacet
  facet normal -1 0 0
    outer loop
      vertex 19 -5 0
      vertex 19 -5 38
      vertex 19 5 0
    endloop
  endfacet
  facet normal -1 0 0
    outer loop
      vertex 19 5 0
      vertex 19 -5 38
      vertex 19 5 38
    endloop
  endfacet
  facet normal 0 -1 0
    outer loop
      vertex 19 -5 38
      vertex 19 -5 0
      vertex 29 -5 0
    endloop
  endfacet
  facet normal 0 -1 0
    outer loop
      vertex 29 -5 38
      vertex 19 -5 38
      vertex 29 -5 0
    endloop
  endfacet
  facet normal 0 0 -1
    outer loop
      vertex 19 -5 0
      vertex 19 5 0
      vertex 29 -5 0
    endloop
  endfacet
  facet normal 0 0 -1
    outer loop
      vertex 29 -5 0
      vertex 19 5 0
      vertex 29 5 0
    endloop
  endfacet
  facet normal 0 1 0
    outer loop
      vertex 19 5 0
      vertex 19 5 38
      vertex 29 5 0
    endloop
  endfacet
  facet normal 0 1 0
    outer loop
      vertex 29 5 0
      vertex 19 5 38
      vertex 29 5 38
    endloop
  endfacet
  facet normal 0 0 1
    outer loop
      vertex 19 5 38
      vertex 19 -5 38
      vertex 29 -5 38
    endloop
  endfacet
  facet normal 0 0 1
    outer loop
      vertex 29 5 38
      vertex 19 5 38
      vertex 29 -5 38
    endloop
  endfacet
  facet normal 1 0 0
    outer loop
      vertex 29 -5 38
      vertex 29 -5 0
      vertex 29 5 0
    endloop
  endfacet
  facet normal 1 0 0
    outer loop
      vertex 29 5 38
      vertex 29 -5 38
      vertex 29 5 0
    endloop
  endfacet
endsolid OpenSCAD_Model
