solid OpenSCAD_Model
  facet normal -1 0 0
    outer loop
      vertex -11 -5 0
      vertex -11 -5 38
      vertex -11 5 0
    endloop
  endfacet
  facet normal -1 0 0
    outer loop
      vertex -11 5 0
      vertex -11 -5 38
      vertex -11 5 38
    endloop
  endfacet
  facet normal 0 -1 0
    outer loop
      vertex -11 -5 38
      vertex -11 -5 0
      vertex -1 -5 0
    endloop
  endfacet
  facet normal 0 -1 0
    outer loop
      vertex -1 -5 38
      vertex -11 -5 38
      vertex -1 -5 0
    endloop
  endfacet
  facet normal 0 0 -1
    outer loop
      vertex -6.51785 3.97083 0
      vertex -11 5 0
      vertex -1 5 0
    endloop
  endfacet
  facet normal 0 0 -1
    outer loop
      vertex -11 -5 0
      vertex -11 5 0
      vertex -10.8838 0.957263 0
    endloop
  endfacet
  facet normal 0 0 -1
    outer loop
      vertex -11 -5 0
      vertex -10.8838 0.957263 0
      vertex -10.8838 -0.957263 0
    endloop
  endfacet
  facet normal 0 0 -1
    outer loop
      vertex -11 -5 0
      vertex -10.8838 -0.957263 0
      vertex -9.99404 -2.65249 0
    endloop
  endfacet
  facet normal 0 0 -1
    outer loop
      vertex -11 -5 0
      vertex -9.99404 -2.65249 0
      vertex -8.41842 -3.74006 0
    endloop
  endfacet
  facet normal 0 0 -1
    outer loop
      vertex -11 -5 0
      vertex -8.41842 -3.74006 0
      vertex -1 -5 0
    endloop
  endfacet
  facet normal 0 0 -1
    outer loop
      vertex -8.41842 -3.74006 0
      vertex -6.51785 -3.97083 0
      vertex -1 -5 0
    endloop
  endfacet
  facet normal 0 0 -1
    outer loop
      vertex -3.45818 -1.85889 0
      vertex -1 -5 0
      vertex -4.72774 -3.29194 0
    endloop
  endfacet
  facet normal 0 0 -1
    outer loop
      vertex -8.41842 3.74006 0
      vertex -11 5 0
      vertex -6.51785 3.97083 0
    endloop
  endfacet
  facet normal 0 0 -1
    outer loop
      vertex -1 -5 0
      vertex -3.45818 -1.85889 0
      vertex -1 5 0
    endloop
  endfacet
  facet normal 0 0 -1
    outer loop
      vertex -3.45818 -1.85889 0
      vertex -3 0 0
      vertex -1 5 0
    endloop
  endfacet
  facet normal 0 0 -1
    outer loop
      vertex -9.99404 2.65249 0
      vertex -11 5 0
      vertex -8.41842 3.74006 0
    endloop
  endfacet
  facet normal 0 0 -1
    outer loop
      vertex -3 0 0
      vertex -3.45818 1.85889 0
      vertex -1 5 0
    endloop
  endfacet
  facet normal 0 0 -1
    outer loop
      vertex -3.45818 1.85889 0
      vertex -4.72774 3.29194 0
      vertex -1 5 0
    endloop
  endfacet
  facet normal 0 0 -1
    outer loop
      vertex -4.72774 3.29194 0
      vertex -6.51785 3.97083 0
      vertex -1 5 0
    endloop
  endfacet
  facet normal 0 0 -1
    outer loop
      vertex -10.8838 0.957263 0
      vertex -11 5 0
      vertex -9.99404 2.65249 0
    endloop
  endfacet
  facet normal 0 0 -1
    outer loop
      vertex -4.72774 -3.29194 0
      vertex -1 -5 0
      vertex -6.51785 -3.97083 0
    endloop
  endfacet
  facet normal 0 1 0
    outer loop
      vertex -11 5 0
      vertex -11 5 38
      vertex -1 5 0
    endloop
  endfacet
  facet normal 0 1 0
    outer loop
      vertex -1 5 0
      vertex -11 5 38
      vertex -1 5 38
    endloop
  endfacet
  facet normal 0 0 1
    outer loop
      vertex -7.44504 -1.94986 38
      vertex -11 -5 38
      vertex -1 -5 38
    endloop
  endfacet
  facet normal 0 0 1
    outer loop
      vertex -11 5 38
      vertex -11 -5 38
      vertex -8.80194 -0.867767 38
    endloop
  endfacet
  facet normal 0 0 1
    outer loop
      vertex -11 5 38
      vertex -8.80194 -0.867767 38
      vertex -8.80194 0.867767 38
    endloop
  endfacet
  facet normal 0 0 1
    outer loop
      vertex -1 5 38
      vertex -11 5 38
      vertex -7.44504 1.94986 38
    endloop
  endfacet
  facet normal 0 0 1
    outer loop
      vertex -1 5 38
      vertex -5.75302 1.56366 38
      vertex -1 -5 38
    endloop
  endfacet
  facet normal 0 0 1
    outer loop
      vertex -1 5 38
      vertex -7.44504 1.94986 38
      vertex -5.75302 1.56366 38
    endloop
  endfacet
  facet normal 0 0 1
    outer loop
      vertex -5.75302 1.56366 38
      vertex -5 0 38
      vertex -1 -5 38
    endloop
  endfacet
  facet normal 0 0 1
    outer loop
      vertex -8.80194 -0.867767 38
      vertex -11 -5 38
      vertex -7.44504 -1.94986 38
    endloop
  endfacet
  facet normal 0 0 1
    outer loop
      vertex -5.75302 -1.56366 38
      vertex -7.44504 -1.94986 38
      vertex -1 -5 38
    endloop
  endfacet
  facet normal 0 0 1
    outer loop
      vertex -8.80194 0.867767 38
      vertex -7.44504 1.94986 38
      vertex -11 5 38
    endloop
  endfacet
  facet normal 0 0 1
    outer loop
      vertex -5 0 38
      vertex -5.75302 -1.56366 38
      vertex -1 -5 38
    endloop
  endfacet
  facet normal 1 0 0
    outer loop
      vertex -1 -5 38
      vertex -1 -5 0
      vertex -1 5 0
    endloop
  endfacet
  facet normal 1 0 0
    outer loop
      vertex -1 5 38
      vertex -1 -5 38
      vertex -1 5 0
    endloop
  endfacet
  facet normal 1 0 0
    outer loop
      vertex -10.8838 0.957263 0
      vertex -10.8838 0.957263 10
      vertex -10.8838 -0.957263 10
    endloop
  endfacet
  facet normal 1 0 0
    outer loop
      vertex -10.8838 -0.957263 0
      vertex -10.8838 0.957263 0
      vertex -10.8838 -0.957263 10
    endloop
  endfacet
  facet normal 0.885456 -0.464723 0
    outer loop
      vertex -9.99404 2.65249 0
      vertex -9.99404 2.65249 10
      vertex -10.8838 0.957263 10
    endloop
  endfacet
  facet normal 0.885456 -0.464723 0
    outer loop
      vertex -10.8838 0.957263 0
      vertex -9.99404 2.65249 0
      vertex -10.8838 0.957263 10
    endloop
  endfacet
  facet normal 0.568065 -0.822984 0
    outer loop
      vertex -8.41842 3.74006 0
      vertex -8.41842 3.74006 10
      vertex -9.99404 2.65249 10
    endloop
  endfacet
  facet normal 0.568065 -0.822984 0
    outer loop
      vertex -9.99404 2.65249 0
      vertex -8.41842 3.74006 0
      vertex -9.99404 2.65249 10
    endloop
  endfacet
  facet normal 0.120536 -0.992709 0
    outer loop
      vertex -6.51785 3.97083 0
      vertex -6.51785 3.97083 10
      vertex -8.41842 3.74006 10
    endloop
  endfacet
  facet normal 0.120536 -0.992709 0
    outer loop
      vertex -8.41842 3.74006 0
      vertex -6.51785 3.97083 0
      vertex -8.41842 3.74006 10
    endloop
  endfacet
  facet normal -0.354605 -0.935016 0
    outer loop
      vertex -4.72774 3.29194 0
      vertex -4.72774 3.29194 10
      vertex -6.51785 3.97083 10
    endloop
  endfacet
  facet normal -0.354605 -0.935016 0
    outer loop
      vertex -6.51785 3.97083 0
      vertex -4.72774 3.29194 0
      vertex -6.51785 3.97083 10
    endloop
  endfacet
  facet normal -0.748511 -0.663123 0
    outer loop
      vertex -3.45818 1.85889 10
      vertex -4.72774 3.29194 10
      vertex -3.45818 1.85889 0
    endloop
  endfacet
  facet normal -0.748511 -0.663123 0
    outer loop
      vertex -3.45818 1.85889 0
      vertex -4.72774 3.29194 10
      vertex -4.72774 3.29194 0
    endloop
  endfacet
  facet normal -0.970942 -0.239316 0
    outer loop
      vertex -3 0 10
      vertex -3.45818 1.85889 10
      vertex -3 0 0
    endloop
  endfacet
  facet normal -0.970942 -0.239316 0
    outer loop
      vertex -3 0 0
      vertex -3.45818 1.85889 10
      vertex -3.45818 1.85889 0
    endloop
  endfacet
  facet normal -0.970942 0.239316 0
    outer loop
      vertex -3 0 10
      vertex -3 0 0
      vertex -3.45818 -1.85889 10
    endloop
  endfacet
  facet normal -0.970942 0.239316 0
    outer loop
      vertex -3.45818 -1.85889 10
      vertex -3 0 0
      vertex -3.45818 -1.85889 0
    endloop
  endfacet
  facet normal -0.748511 0.663123 0
    outer loop
      vertex -3.45818 -1.85889 10
      vertex -3.45818 -1.85889 0
      vertex -4.72774 -3.29194 10
    endloop
  endfacet
  facet normal -0.748511 0.663123 0
    outer loop
      vertex -4.72774 -3.29194 10
      vertex -3.45818 -1.85889 0
      vertex -4.72774 -3.29194 0
    endloop
  endfacet
  facet normal -0.354605 0.935016 0
    outer loop
      vertex -4.72774 -3.29194 10
      vertex -4.72774 -3.29194 0
      vertex -6.51785 -3.97083 10
    endloop
  endfacet
  facet normal -0.354605 0.935016 0
    outer loop
      vertex -6.51785 -3.97083 10
      vertex -4.72774 -3.29194 0
      vertex -6.51785 -3.97083 0
    endloop
  endfacet
  facet normal 0.120536 0.992709 0
    outer loop
      vertex -6.51785 -3.97083 10
      vertex -6.51785 -3.97083 0
      vertex -8.41842 -3.74006 10
    endloop
  endfacet
  facet normal 0.120536 0.992709 0
    outer loop
      vertex -8.41842 -3.74006 10
      vertex -6.51785 -3.97083 0
      vertex -8.41842 -3.74006 0
    endloop
  endfacet
  facet normal 0.568065 0.822984 0
    outer loop
      vertex -8.41842 -3.74006 10
      vertex -8.41842 -3.74006 0
      vertex -9.99404 -2.65249 10
    endloop
  endfacet
  facet normal 0.568065 0.822984 0
    outer loop
      vertex -9.99404 -2.65249 10
      vertex -8.41842 -3.74006 0
      vertex -9.99404 -2.65249 0
    endloop
  endfacet
  facet normal 0.885456 0.464723 0
    outer loop
      vertex -10.8838 -0.957263 10
      vertex -9.99404 -2.65249 10
      vertex -9.99404 -2.65249 0
    endloop
  endfacet
  facet normal 0.885456 0.464723 0
    outer loop
      vertex -10.8838 -0.957263 0
      vertex -10.8838 -0.957263 10
      vertex -9.99404 -2.65249 0
    endloop
  endfacet
  facet normal 0.62349 0.781831 0
    outer loop
      vertex -7.44504 -1.94986 38
      vertex -7.44504 -1.94986 10
      vertex -8.80194 -0.867767 38
    endloop
  endfacet
  facet normal 0.62349 0.781831 0
    outer loop
      vertex -8.80194 -0.867767 38
      vertex -7.44504 -1.94986 10
      vertex -8.80194 -0.867767 10
    endloop
  endfacet
  facet normal 1 0 0
    outer loop
      vertex -8.80194 0.867767 10
      vertex -8.80194 0.867767 38
      vertex -8.80194 -0.867767 38
    endloop
  endfacet
  facet normal 1 0 0
    outer loop
      vertex -8.80194 -0.867767 10
      vertex -8.80194 0.867767 10
      vertex -8.80194 -0.867767 38
    endloop
  endfacet
  facet normal -0.222521 0.974928 0
    outer loop
      vertex -5.75302 -1.56366 38
      vertex -5.75302 -1.56366 10
      vertex -7.44504 -1.94986 38
    endloop
  endfacet
  facet normal -0.222521 0.974928 0
    outer loop
      vertex -7.44504 -1.94986 38
      vertex -5.75302 -1.56366 10
      vertex -7.44504 -1.94986 10
    endloop
  endfacet
  facet normal -0.900969 0.433884 0
    outer loop
      vertex -5 0 38
      vertex -5 0 10
      vertex -5.75302 -1.56366 38
    endloop
  endfacet
  facet normal -0.900969 0.433884 0
    outer loop
      vertex -5.75302 -1.56366 38
      vertex -5 0 10
      vertex -5.75302 -1.56366 10
    endloop
  endfacet
  facet normal -0.900969 -0.433884 0
    outer loop
      vertex -5 0 38
      vertex -5.75302 1.56366 38
      vertex -5 0 10
    endloop
  endfacet
  facet normal -0.900969 -0.433884 0
    outer loop
      vertex -5 0 10
      vertex -5.75302 1.56366 38
      vertex -5.75302 1.56366 10
    endloop
  endfacet
  facet normal -0.222521 -0.974928 0
    outer loop
      vertex -5.75302 1.56366 10
      vertex -5.75302 1.56366 38
      vertex -7.44504 1.94986 38
    endloop
  endfacet
  facet normal -0.222521 -0.974928 0
    outer loop
      vertex -7.44504 1.94986 10
      vertex -5.75302 1.56366 10
      vertex -7.44504 1.94986 38
    endloop
  endfacet
  facet normal 0.62349 -0.781831 0
    outer loop
      vertex -7.44504 1.94986 10
      vertex -7.44504 1.94986 38
      vertex -8.80194 0.867767 38
    endloop
  endfacet
  facet normal 0.62349 -0.781831 0
    outer loop
      vertex -8.80194 0.867767 10
      vertex -7.44504 1.94986 10
      vertex -8.80194 0.867767 38
    endloop
  endfacet
  facet normal 0 0 -1
    outer loop
      vertex -9.99404 2.65249 10
      vertex -8.41842 3.74006 10
      vertex -10.8838 0.957263 10
    endloop
  endfacet
  facet normal 0 0 -1
    outer loop
      vertex -10.8838 0.957263 10
      vertex -8.41842 3.74006 10
      vertex -6.51785 3.97083 10
    endloop
  endfacet
  facet normal 0 0 -1
    outer loop
      vertex -10.8838 0.957263 10
      vertex -6.51785 3.97083 10
      vertex -4.72774 3.29194 10
    endloop
  endfacet
  facet normal 0 0 -1
    outer loop
      vertex -7.44504 1.94986 10
      vertex -4.72774 3.29194 10
      vertex -3.45818 1.85889 10
    endloop
  endfacet
  facet normal 0 0 -1
    outer loop
      vertex -5.75302 1.56366 10
      vertex -3.45818 1.85889 10
      vertex -3 0 10
    endloop
  endfacet
  facet normal 0 0 -1
    outer loop
      vertex -5 0 10
      vertex -3 0 10
      vertex -3.45818 -1.85889 10
    endloop
  endfacet
  facet normal 0 0 -1
    outer loop
      vertex -5.75302 -1.56366 10
      vertex -3.45818 -1.85889 10
      vertex -4.72774 -3.29194 10
    endloop
  endfacet
  facet normal 0 0 -1
    outer loop
      vertex -7.44504 -1.94986 10
      vertex -4.72774 -3.29194 10
      vertex -6.51785 -3.97083 10
    endloop
  endfacet
  facet normal 0 0 -1
    outer loop
      vertex -10.8838 0.957263 10
      vertex -6.51785 -3.97083 10
      vertex -8.41842 -3.74006 10
    endloop
  endfacet
  facet normal 0 0 -1
    outer loop
      vertex -10.8838 0.957263 10
      vertex -8.41842 -3.74006 10
      vertex -9.99404 -2.65249 10
    endloop
  endfacet
  facet normal 0 0 -1
    outer loop
      vertex -10.8838 0.957263 10
      vertex -9.99404 -2.65249 10
      vertex -10.8838 -0.957263 10
    endloop
  endfacet
  facet normal 0 0 -1
    outer loop
      vertex -5.75302 -1.56366 10
      vertex -4.72774 -3.29194 10
      vertex -7.44504 -1.94986 10
    endloop
  endfacet
  facet normal 0 0 -1
    outer loop
      vertex -10.8838 0.957263 10
      vertex -8.80194 -0.867767 10
      vertex -6.51785 -3.97083 10
    endloop
  endfacet
  facet normal 0 0 -1
    outer loop
      vertex -8.80194 -0.867767 10
      vertex -7.44504 -1.94986 10
      vertex -6.51785 -3.97083 10
    endloop
  endfacet
  facet normal 0 0 -1
    outer loop
      vertex -7.44504 1.94986 10
      vertex -3.45818 1.85889 10
      vertex -5.75302 1.56366 10
    endloop
  endfacet
  facet normal 0 0 -1
    outer loop
      vertex -10.8838 0.957263 10
      vertex -4.72774 3.29194 10
      vertex -7.44504 1.94986 10
    endloop
  endfacet
  facet normal 0 0 -1
    outer loop
      vertex -8.80194 0.867767 10
      vertex -10.8838 0.957263 10
      vertex -7.44504 1.94986 10
    endloop
  endfacet
  facet normal 0 0 -1
    outer loop
      vertex -8.80194 -0.867767 10
      vertex -10.8838 0.957263 10
      vertex -8.80194 0.867767 10
    endloop
  endfacet
  facet normal 0 0 -1
    outer loop
      vertex -5.75302 1.56366 10
      vertex -3 0 10
      vertex -5 0 10
    endloop
  endfacet
  facet normal 0 0 -1
    outer loop
      vertex -5 0 10
      vertex -3.45818 -1.85889 10
      vertex -5.75302 -1.56366 10
    endloop
  endfacet
  facet normal -1 0 0
    outer loop
      vertex 19 -5 0
      vertex 19 -5 38
      vertex 19 5 0
    endloop
  endfacet
  facet normal -1 0 0
    outer loop
      vertex 19 5 0
      vertex 19 -5 38
      vertex 19 5 38
    endloop
  endfacet
  facet normal 0 -1 0
    outer loop
      vertex 19 -5 38
      vertex 19 -5 0
      vertex 29 -5 0
    endloop
  endfacet
  facet normal 0 -1 0
    outer loop
      vertex 29 -5 38
      vertex 19 -5 38
      vertex 29 -5 0
    endloop
  endfacet
  facet normal 0 0 -1
    outer loop
      vertex 19 -5 0
      vertex 19 5 0
      vertex 29 -5 0
    endloop
  endfacet
  facet normal 0 0 -1
    outer loop
      vertex 29 -5 0
      vertex 19 5 0
      vertex 29 5 0
    endloop
  endfacet
  facet normal 0 1 0
    outer loop
      vertex 19 5 0
      vertex 19 5 38
      vertex 29 5 0
    endloop
  endfacet
  facet normal 0 1 0
    outer loop
      vertex 29 5 0
      vertex 19 5 38
      vertex 29 5 38
    endloop
  endfacet
  facet normal 0 0 1
    outer loop
      vertex 19 5 38
      vertex 19 -5 38
      vertex 29 -5 38
    endloop
  endfacet
  facet normal 0 0 1
    outer loop
      vertex 29 5 38
      vertex 19 5 38
      vertex 29 -5 38
    endloop
  endfacet
  facet normal 1 0 0
    outer loop
      vertex 29 -5 38
      vertex 29 -5 0
      vertex 29 5 0
    endloop
  endfacet
  facet normal 1 0 0
    outer loop
      vertex 29 5 38
      vertex 29 -5 38
      vertex 29 5 0
    endloop
  endfacet
endsolid OpenSCAD_Model
